<?xml version="1.0" encoding="UTF-8"?>
<svg id="Layer_2" xmlns="http://www.w3.org/2000/svg" viewBox="0 0 687.13 155.62">
  <defs>
    <style>
      .cls-1 {
        fill: #231f20;
      }

      .cls-2, .cls-3 {
        fill: #fff;
      }

      .cls-3 {
        font-family: Swiss721BT-BlackCondensed, 'Swis721 BlkCn BT';
        font-size: 117px;
        font-weight: 800;
      }
    </style>
  </defs>
  <g id="Layer_1-2" data-name="Layer_1">
    <g>
      <rect class="cls-1" width="687.13" height="155.62"/>
      <text class="cls-3" transform="translate(31.91 120.18)"><tspan x="0" y="0">BANSHEE</tspan></text>
      <path class="cls-2" d="M527.43,110.68c.02-15.01.09-55.25,31.76-79.65,5.26-4.05,29.95-23.93,49.71-15.11,15.67,7,20.12,28.38,23.64,45.35,3.14,15.09-.15,14.86,2.6,49.41,1.34,16.82,3.07,28.66,0,29.58-4.56,1.37-12.26-23.58-23.22-23.09-10.03.45-12.55,21.74-22.27,22.14-11.19.47-15.77-27.44-27.89-27.73-12.42-.3-19.75,28.71-27.34,27.19-6.9-1.39-7-26.63-7-28.08Z"/>
      <g>
        <ellipse class="cls-1" cx="606" cy="50.25" rx="16.04" ry="15.65"/>
        <circle class="cls-2" cx="609.84" cy="50.25" r="7.63"/>
      </g>
      <g>
        <ellipse class="cls-1" cx="569.93" cy="50.25" rx="16.04" ry="15.65"/>
        <circle class="cls-2" cx="569.93" cy="42.62" r="7.63"/>
      </g>
    </g>
  </g>
</svg>