<?xml version="1.0" encoding="UTF-8"?>
<svg id="Layer_2" xmlns="http://www.w3.org/2000/svg" viewBox="0 0 566.93 56.69">
  <defs>
    <style>
      .cls-1 {
        fill: #231f20;
      }

      .cls-2, .cls-3 {
        fill: #fff;
      }

      .cls-3 {
        font-family: Swiss721BT-Bold, 'Swis721 BT';
        font-size: 38px;
        font-weight: 700;
      }

      .cls-4 {
        stroke-width: .5px;
      }

      .cls-4, .cls-5 {
        fill: none;
        stroke: #231f20;
        stroke-miterlimit: 10;
      }
    </style>
  </defs>
  <g id="Layer_1-2" data-name="Layer_1">
    <g>
      <rect class="cls-1" width="566.93" height="56.69"/>
      <text class="cls-3" transform="translate(8.27 44.05)"><tspan x="0" y="0">BANSHEE PRODUCTIONS</tspan></text>
      <g>
        <path class="cls-2" d="M522.72,48.3s-5.39,9.87-8.78.97c-3.39-8.9-1.99-34.84,1.2-38.13s7.58-4.64,7.58-4.64c0,0,7.58-3.68,11.77,0s11.77,36.97,4.99,41.61-6.38-5.61-6.38-5.61c0,0,.2,8.9-3.59,7.35s-3.79-4.94-3.79-4.94c0,0-3.19,12.59-5.58.83"/>
        <g>
          <ellipse class="cls-1" cx="517.89" cy="18.82" rx="6.34" ry="6.4" transform="translate(303.46 490.61) rotate(-67.64)"/>
          <ellipse class="cls-2" cx="520.98" cy="18.45" rx="3.11" ry="3.02"/>
        </g>
        <g>
          <ellipse class="cls-1" cx="530.99" cy="17.21" rx="6.55" ry="6.2"/>
          <ellipse class="cls-2" cx="532.55" cy="17.21" rx="3.11" ry="3.02"/>
        </g>
        <g>
          <polyline class="cls-1" points="517.89 44.18 520.02 27.23 533.19 24.33 536.45 38.28 531.92 36.44 528.94 39.07 524.83 37.75 521.43 41.44 520.02 39.07"/>
          <polyline class="cls-2" points="520.02 27.23 522.5 30.81 524.08 26.33 527.17 30.02 530.63 24.89 533.93 27.5 533.19 24.33"/>
        </g>
        <path class="cls-2" d="M543.36,28.59c.46-5.09,13.03,0,13.03,0l-4.81,3.54s-3.29-.96-5.2-1.53c-.76-.23-1.3-.39-1.33-.4-.23-.11-.44-.22-.63-.33-.67-.4-1.1-.83-1.06-1.28Z"/>
        <path class="cls-2" d="M546.12,34.06s-3.04-3.4-1.26-6.59,1.26,6.59,1.26,6.59Z"/>
        <polyline class="cls-2" points="551.58 32.13 559.36 34.06 553.02 31.07 559.71 32.57 554.42 30.04 560.32 31.17 556.39 28.59"/>
        <path class="cls-2" d="M508.69,27.46c-3.87-3.46-9.64,8.51-9.64,8.51l6.01-.52s1.77-2.86,2.79-4.53c.41-.66.7-1.14.71-1.17.09-.23.17-.45.24-.65.22-.74.24-1.33-.11-1.64Z"/>
        <path class="cls-2" d="M508.66,34.32s1.74-3.67-.8-5.65.8,5.65.8,5.65Z"/>
        <polyline class="cls-2" points="505.06 35.45 500.64 41.96 503.25 35.61 499.34 41.08 501.5 35.76 497.92 40.45 499.04 35.97"/>
        <line class="cls-5" x1="529.44" y1="8.48" x2="535.67" y2="11.71"/>
        <line class="cls-5" x1="519.46" y1="9.81" x2="514.13" y2="12.8"/>
        <path class="cls-5" d="M516.21,24.56s-2.99,4.26-2.49,7.57-.06,2.98-.06,2.98"/>
        <path class="cls-5" d="M534.81,21.47s-.25,6.27,1.3,6.87,1.94,5.73,1.94,5.73"/>
        <path class="cls-4" d="M536.42,20.23s-.6,2.82.33,4.1.78,2.24.78,2.24"/>
      </g>
    </g>
  </g>
</svg>