<?xml version="1.0" encoding="UTF-8"?>
<svg id="Layer_2" xmlns="http://www.w3.org/2000/svg" viewBox="0 0 45.35 45.35">
  <defs>
    <style>
      .cls-1 {
        fill: #231f20;
      }

      .cls-2 {
        fill: #fff;
      }

      .cls-3 {
        stroke-width: .5px;
      }

      .cls-3, .cls-4 {
        fill: none;
        stroke: #231f20;
        stroke-miterlimit: 10;
      }
    </style>
  </defs>
  <g id="Layer_1-2" data-name="Layer_1">
    <rect class="cls-1" width="45.35" height="45.35"/>
    <g>
      <path class="cls-2" d="M20,33.68s-3.24,5.94-5.28.58c-2.04-5.36-1.2-20.97.72-22.95s4.56-2.8,4.56-2.8c0,0,4.56-2.21,7.08,0s7.08,22.25,3,25.05-3.84-3.38-3.84-3.38c0,0,.12,5.36-2.16,4.43s-2.28-2.98-2.28-2.98c0,0-1.92,7.58-3.36.5"/>
      <g>
        <ellipse class="cls-1" cx="17.09" cy="15.93" rx="3.82" ry="3.85" transform="translate(-4.15 25.68) rotate(-67.64)"/>
        <ellipse class="cls-2" cx="18.95" cy="15.71" rx="1.87" ry="1.82"/>
      </g>
      <g>
        <ellipse class="cls-1" cx="24.97" cy="14.96" rx="3.94" ry="3.73"/>
        <ellipse class="cls-2" cx="25.92" cy="14.96" rx="1.87" ry="1.82"/>
      </g>
      <g>
        <polyline class="cls-1" points="17.09 31.2 18.37 20.99 26.3 19.25 28.26 27.65 25.53 26.54 23.74 28.12 21.27 27.33 19.22 29.55 18.37 28.12"/>
        <polyline class="cls-2" points="18.37 20.99 19.86 23.15 20.81 20.46 22.68 22.68 24.76 19.59 26.75 21.16 26.3 19.25"/>
      </g>
      <path class="cls-2" d="M32.42,21.82c.28-3.06,7.84,0,7.84,0l-2.9,2.13s-1.98-.58-3.13-.92c-.46-.14-.78-.23-.8-.24-.14-.06-.26-.13-.38-.2-.41-.24-.66-.5-.64-.77Z"/>
      <path class="cls-2" d="M34.08,25.11s-1.83-2.05-.76-3.97.76,3.97.76,3.97Z"/>
      <polyline class="cls-2" points="37.37 23.95 42.05 25.11 38.24 23.31 42.26 24.21 39.08 22.69 42.63 23.37 40.26 21.82"/>
      <path class="cls-2" d="M11.55,21.14c-2.33-2.08-5.8,5.12-5.8,5.12l3.62-.31s1.06-1.72,1.68-2.73c.24-.4.42-.68.43-.7.06-.14.1-.27.14-.39.13-.44.14-.8-.06-.99Z"/>
      <path class="cls-2" d="M11.53,25.26s1.05-2.21-.48-3.4.48,3.4.48,3.4Z"/>
      <polyline class="cls-2" points="9.37 25.94 6.71 29.86 8.28 26.04 5.93 29.33 7.23 26.13 5.07 28.95 5.75 26.26"/>
      <line class="cls-4" x1="24.04" y1="9.71" x2="27.79" y2="11.65"/>
      <line class="cls-4" x1="18.04" y1="10.51" x2="14.82" y2="12.31"/>
      <path class="cls-4" d="M16.08,19.39s-1.8,2.56-1.5,4.56-.03,1.79-.03,1.79"/>
      <path class="cls-4" d="M27.27,17.53s-.15,3.78.78,4.13,1.17,3.45,1.17,3.45"/>
      <path class="cls-3" d="M28.24,16.78s-.36,1.7.2,2.47.47,1.35.47,1.35"/>
    </g>
  </g>
</svg>