<?xml version="1.0" encoding="UTF-8"?>
<svg id="Layer_2" xmlns="http://www.w3.org/2000/svg" viewBox="0 0 340.16 340.16">
  <defs>
    <style>
      .cls-1 {
        font-family: Swiss721BT-Bold, 'Swis721 BT';
        font-size: 61px;
        font-weight: 700;
      }

      .cls-1, .cls-2 {
        fill: #fff;
      }

      .cls-3 {
        fill: #231f20;
      }

      .cls-4 {
        stroke-width: .5px;
      }

      .cls-4, .cls-5 {
        fill: none;
        stroke: #231f20;
        stroke-miterlimit: 10;
      }
    </style>
  </defs>
  <g id="Layer_1-2" data-name="Layer_1">
    <g>
      <rect class="cls-3" width="340.16" height="340.16"/>
      <text class="cls-1" transform="translate(21.99 301.35)"><tspan x="0" y="0">BANSHEE</tspan></text>
      <g>
        <path class="cls-2" d="M148.57,209.75s-21.22,38.9-34.58,3.81c-13.36-35.09-7.86-137.29,4.72-150.26,12.58-12.97,29.87-18.31,29.87-18.31,0,0,29.87-14.49,46.37,0,16.51,14.49,46.37,145.68,19.65,163.99-26.72,18.31-25.15-22.12-25.15-22.12,0,0,.79,35.09-14.15,28.98-14.93-6.1-14.93-19.48-14.93-19.48,0,0-12.58,49.63-22.01,3.28"/>
        <g>
          <path class="cls-3" d="M132.72,118.42c-13.8,1.67-26.41-8.1-28.17-21.83-1.76-13.72,7.99-26.2,21.79-27.86,13.8-1.67,26.41,8.1,28.17,21.83,1.76,13.72-7.99,26.2-21.79,27.86Z"/>
          <ellipse class="cls-2" cx="141.7" cy="92.11" rx="12.27" ry="11.91"/>
        </g>
        <g>
          <ellipse class="cls-3" cx="181.13" cy="87.22" rx="25.8" ry="24.43"/>
          <ellipse class="cls-2" cx="187.3" cy="87.22" rx="12.27" ry="11.91"/>
        </g>
        <g>
          <polyline class="cls-3" points="129.53 193.54 137.9 126.71 189.83 115.29 202.67 170.27 184.8 163.01 173.08 173.38 156.89 168.2 143.49 182.72 137.9 173.38"/>
          <polyline class="cls-2" points="137.9 126.71 147.67 140.84 153.9 123.19 166.1 137.73 179.72 117.52 192.75 127.79 189.83 115.29"/>
        </g>
        <path class="cls-2" d="M229.88,132.08c1.82-20.05,51.36,0,51.36,0l-18.96,13.95s-12.97-3.79-20.51-6.03c-3-.89-5.13-1.53-5.25-1.58-.89-.42-1.72-.86-2.47-1.3-2.66-1.57-4.33-3.27-4.17-5.05Z"/>
        <path class="cls-2" d="M240.79,153.65s-11.97-13.41-4.98-25.97c6.99-12.56,4.98,25.97,4.98,25.97Z"/>
        <polyline class="cls-2" points="262.28 146.04 292.96 153.65 267.97 141.85 294.34 147.75 273.48 137.79 296.75 142.23 281.24 132.08"/>
        <path class="cls-2" d="M93.25,127.64c-15.24-13.65-38,33.53-38,33.53l23.7-2.05s6.97-11.28,11-17.85c1.6-2.61,2.74-4.48,2.79-4.6.37-.89.68-1.76.93-2.58.88-2.9.93-5.25-.41-6.45Z"/>
        <path class="cls-2" d="M93.13,154.65s6.86-14.46-3.16-22.28c-10.02-7.82,3.16,22.28,3.16,22.28Z"/>
        <polyline class="cls-2" points="78.95 159.11 61.53 184.77 71.84 159.73 56.42 181.31 64.94 160.33 50.81 178.8 55.25 161.17"/>
        <line class="cls-5" x1="175.03" y1="52.82" x2="199.57" y2="65.54"/>
        <line class="cls-5" x1="135.72" y1="58.05" x2="114.69" y2="69.84"/>
        <path class="cls-5" d="M122.89,116.2s-11.79,16.78-9.83,29.84c1.97,13.06-.22,11.73-.22,11.73"/>
        <path class="cls-5" d="M196.19,104.02s-.98,24.72,5.11,27.06,7.66,22.57,7.66,22.57"/>
        <path class="cls-4" d="M202.54,99.13s-2.36,11.13,1.31,16.16c3.67,5.03,3.08,8.85,3.08,8.85"/>
      </g>
    </g>
  </g>
</svg>