<?xml version="1.0" encoding="UTF-8"?>
<svg id="Layer_2" xmlns="http://www.w3.org/2000/svg" viewBox="0 0 261.07 48.13">
  <defs>
    <style>
      .cls-1 {
        fill: #231f20;
      }

      .cls-2, .cls-3 {
        fill: #fff;
      }

      .cls-3 {
        font-family: Swiss721BT-Bold, 'Swis721 BT';
        font-size: 38px;
        font-weight: 700;
      }

      .cls-4 {
        stroke-width: .5px;
      }

      .cls-4, .cls-5 {
        fill: none;
        stroke: #231f20;
        stroke-miterlimit: 10;
      }
    </style>
  </defs>
  <g id="Layer_1-2" data-name="Layer_1">
    <g>
      <text class="cls-3" transform="translate(0 37.96)"><tspan x="0" y="0">BANSHEE</tspan></text>
      <g>
        <path class="cls-2" d="M223.47,43.44s-5.39,9.87-8.78.97c-3.39-8.9-1.99-34.84,1.2-38.13s7.58-4.64,7.58-4.64c0,0,7.58-3.68,11.77,0s11.77,36.97,4.99,41.61-6.38-5.61-6.38-5.61c0,0,.2,8.9-3.59,7.35s-3.79-4.94-3.79-4.94c0,0-3.19,12.59-5.58.83"/>
        <g>
          <ellipse class="cls-1" cx="218.64" cy="13.96" rx="6.34" ry="6.4" transform="translate(122.55 210.85) rotate(-67.64)"/>
          <ellipse class="cls-2" cx="221.73" cy="13.59" rx="3.11" ry="3.02"/>
        </g>
        <g>
          <ellipse class="cls-1" cx="231.73" cy="12.35" rx="6.55" ry="6.2"/>
          <ellipse class="cls-2" cx="233.3" cy="12.35" rx="3.11" ry="3.02"/>
        </g>
        <g>
          <polyline class="cls-1" points="218.64 39.33 220.76 22.37 233.94 19.47 237.2 33.42 232.66 31.58 229.69 34.21 225.58 32.9 222.18 36.58 220.76 34.21"/>
          <polyline class="cls-2" points="220.76 22.37 223.24 25.95 224.82 21.48 227.92 25.16 231.37 20.04 234.68 22.64 233.94 19.47"/>
        </g>
        <path class="cls-2" d="M244.1,23.73c.46-5.09,13.03,0,13.03,0l-4.81,3.54s-3.29-.96-5.2-1.53c-.76-.23-1.3-.39-1.33-.4-.23-.11-.44-.22-.63-.33-.67-.4-1.1-.83-1.06-1.28Z"/>
        <path class="cls-2" d="M246.87,29.2s-3.04-3.4-1.26-6.59,1.26,6.59,1.26,6.59Z"/>
        <polyline class="cls-2" points="252.32 27.27 260.11 29.2 253.77 26.21 260.46 27.71 255.17 25.18 261.07 26.31 257.13 23.73"/>
        <path class="cls-2" d="M209.43,22.6c-3.87-3.46-9.64,8.51-9.64,8.51l6.01-.52s1.77-2.86,2.79-4.53c.41-.66.7-1.14.71-1.17.09-.23.17-.45.24-.65.22-.74.24-1.33-.11-1.64Z"/>
        <path class="cls-2" d="M209.4,29.46s1.74-3.67-.8-5.65.8,5.65.8,5.65Z"/>
        <polyline class="cls-2" points="205.8 30.59 201.38 37.1 204 30.75 200.09 36.22 202.25 30.9 198.66 35.59 199.79 31.11"/>
        <line class="cls-5" x1="230.18" y1="3.62" x2="236.41" y2="6.85"/>
        <line class="cls-5" x1="220.21" y1="4.95" x2="214.87" y2="7.94"/>
        <path class="cls-5" d="M216.95,19.7s-2.99,4.26-2.49,7.57-.06,2.98-.06,2.98"/>
        <path class="cls-5" d="M235.55,16.61s-.25,6.27,1.3,6.87,1.94,5.73,1.94,5.73"/>
        <path class="cls-4" d="M237.17,15.37s-.6,2.82.33,4.1.78,2.24.78,2.24"/>
      </g>
    </g>
  </g>
</svg>