<?xml version="1.0" encoding="UTF-8"?>
<svg id="Layer_2" xmlns="http://www.w3.org/2000/svg" viewBox="0 0 277.45 56.69">
  <defs>
    <style>
      .cls-1 {
        fill: #231f20;
      }

      .cls-2, .cls-3 {
        fill: #fff;
      }

      .cls-3 {
        font-family: Swiss721BT-Bold, 'Swis721 BT';
        font-size: 38px;
        font-weight: 700;
      }

      .cls-4 {
        stroke-width: .5px;
      }

      .cls-4, .cls-5 {
        fill: none;
        stroke: #231f20;
        stroke-miterlimit: 10;
      }
    </style>
  </defs>
  <g id="Layer_1-2" data-name="Layer_1">
    <g>
      <rect class="cls-1" width="277.45" height="56.69"/>
      <text class="cls-3" transform="translate(8.27 44.05)"><tspan x="0" y="0">BANSHEE</tspan></text>
      <g>
        <path class="cls-2" d="M231.74,49.52s-5.39,9.87-8.78.97c-3.39-8.9-1.99-34.84,1.2-38.13s7.58-4.64,7.58-4.64c0,0,7.58-3.68,11.77,0s11.77,36.97,4.99,41.61-6.38-5.61-6.38-5.61c0,0,.2,8.9-3.59,7.35s-3.79-4.94-3.79-4.94c0,0-3.19,12.59-5.58.83"/>
        <g>
          <ellipse class="cls-1" cx="226.91" cy="20.04" rx="6.34" ry="6.4" transform="translate(122.04 222.26) rotate(-67.64)"/>
          <ellipse class="cls-2" cx="230" cy="19.67" rx="3.11" ry="3.02"/>
        </g>
        <g>
          <ellipse class="cls-1" cx="240" cy="18.43" rx="6.55" ry="6.2"/>
          <ellipse class="cls-2" cx="241.57" cy="18.43" rx="3.11" ry="3.02"/>
        </g>
        <g>
          <polyline class="cls-1" points="226.91 45.41 229.03 28.45 242.21 25.56 245.47 39.51 240.93 37.66 237.96 40.3 233.85 38.98 230.45 42.66 229.03 40.3"/>
          <polyline class="cls-2" points="229.03 28.45 231.51 32.04 233.09 27.56 236.19 31.25 239.64 26.12 242.95 28.73 242.21 25.56"/>
        </g>
        <path class="cls-2" d="M252.37,29.82c.46-5.09,13.03,0,13.03,0l-4.81,3.54s-3.29-.96-5.2-1.53c-.76-.23-1.3-.39-1.33-.4-.23-.11-.44-.22-.63-.33-.67-.4-1.1-.83-1.06-1.28Z"/>
        <path class="cls-2" d="M255.14,35.29s-3.04-3.4-1.26-6.59,1.26,6.59,1.26,6.59Z"/>
        <polyline class="cls-2" points="260.59 33.36 268.38 35.29 262.03 32.29 268.73 33.79 263.43 31.26 269.34 32.39 265.4 29.82"/>
        <path class="cls-2" d="M217.7,28.69c-3.87-3.46-9.64,8.51-9.64,8.51l6.01-.52s1.77-2.86,2.79-4.53c.41-.66.7-1.14.71-1.17.09-.23.17-.45.24-.65.22-.74.24-1.33-.11-1.64Z"/>
        <path class="cls-2" d="M217.67,35.54s1.74-3.67-.8-5.65.8,5.65.8,5.65Z"/>
        <polyline class="cls-2" points="214.07 36.67 209.65 43.19 212.27 36.83 208.35 42.31 210.52 36.98 206.93 41.67 208.06 37.2"/>
        <line class="cls-5" x1="238.45" y1="9.7" x2="244.68" y2="12.93"/>
        <line class="cls-5" x1="228.48" y1="11.03" x2="223.14" y2="14.02"/>
        <path class="cls-5" d="M225.22,25.78s-2.99,4.26-2.49,7.57-.06,2.98-.06,2.98"/>
        <path class="cls-5" d="M243.82,22.69s-.25,6.27,1.3,6.87,1.94,5.73,1.94,5.73"/>
        <path class="cls-4" d="M245.43,21.45s-.6,2.82.33,4.1.78,2.24.78,2.24"/>
      </g>
    </g>
  </g>
</svg>