<?xml version="1.0" encoding="UTF-8"?>
<svg id="Layer_2" xmlns="http://www.w3.org/2000/svg" viewBox="0 0 68.79 125.43">
  <defs>
    <style>
      .cls-1 {
        fill: #f2ed40;
      }

      .cls-2 {
        fill: none;
        stroke: #000;
        stroke-miterlimit: 10;
        stroke-width: 6px;
      }
    </style>
  </defs>
  <g id="Layer_1-2" data-name="Layer_1">
    <g>
      <path class="cls-1" d="M65.79,92.61c0,1.1-.73,2.53-1.62,3.18l-36.22,26.31c-.89.65-1.34.32-1-.73l13.83-42.57c.34-1.05-.11-2.43-1-3.08L3.57,49.41c-.89-.65-.72-1.18.38-1.18h44.77c1.1,0,2.28-.86,2.62-1.9L65.17,3.76c.34-1.05.62-1,.62.1v88.76Z"/>
      <path class="cls-2" d="M65.79,92.61c0,1.1-.73,2.53-1.62,3.18l-36.22,26.31c-.89.65-1.34.32-1-.73l13.83-42.57c.34-1.05-.11-2.43-1-3.08L3.57,49.41c-.89-.65-.72-1.18.38-1.18h44.77c1.1,0,2.28-.86,2.62-1.9L65.17,3.76c.34-1.05.62-1,.62.1v88.76Z"/>
    </g>
  </g>
</svg>