<?xml version="1.0" encoding="UTF-8"?>
<svg id="Layer_2" xmlns="http://www.w3.org/2000/svg" viewBox="0 0 110.06 105.1">
  <g id="Layer_1-2" data-name="Layer_1">
    <path d="M55.03,9.93l8.74,26.91c1.14,3.5,4.64,6.05,8.32,6.05h28.3l-22.89,16.63c-2.98,2.17-4.32,6.28-3.18,9.79l8.74,26.91-22.89-16.63c-1.45-1.05-3.27-1.63-5.14-1.63s-3.7.58-5.14,1.63l-22.89,16.63,8.74-26.91c1.14-3.5-.2-7.62-3.18-9.79l-22.89-16.63h28.3c3.68,0,7.19-2.54,8.32-6.05l8.74-26.91M55.03,0c-1.7,0-3.4.98-4.03,2.93l-10.42,32.06c-.34,1.05-1.52,1.9-2.62,1.9H4.25c-4.11,0-5.82,5.26-2.49,7.67l27.28,19.82c.89.65,1.34,2.03,1,3.08l-10.42,32.06c-.97,2.98,1.4,5.57,4.05,5.57.83,0,1.69-.25,2.48-.83l27.28-19.82c.44-.32,1.03-.48,1.62-.48s1.17.16,1.62.48l27.28,19.82c.79.58,1.65.83,2.48.83,2.65,0,5.01-2.59,4.05-5.57l-10.42-32.06c-.34-1.05.11-2.43,1-3.08l27.28-19.82c3.32-2.41,1.62-7.67-2.49-7.67h-33.71c-1.1,0-2.28-.86-2.62-1.9L59.06,2.93c-.63-1.95-2.33-2.93-4.03-2.93h0Z"/>
  </g>
</svg>